<svg id="Layer_1" data-name="Layer 1" xmlns="http://www.w3.org/2000/svg" xmlns:xlink="http://www.w3.org/1999/xlink" viewBox="0 0 116.91 23.39"><defs><style>.cls-1{fill-rule:evenodd;fill:url(#linear-gradient);}.cls-2{fill:#fff;}</style><linearGradient id="linear-gradient" x1="18.4" y1="12" x2="49.16" y2="12" gradientUnits="userSpaceOnUse"><stop offset="0" stop-color="#f1c3db"/><stop offset="1" stop-color="#a18cc2"/></linearGradient></defs><title>easy-shop-logo</title><path class="cls-1" d="M41,9.21A1.06,1.06,0,1,0,41,7.1H38.74a1.06,1.06,0,1,0,0,2.12ZM20.16,13a1.06,1.06,0,0,0,1.06,1.06h18a1.06,1.06,0,1,0,0-2.12h-18A1.06,1.06,0,0,0,20.16,13Zm.2-10.61H24L25.45,7.1H24a1.06,1.06,0,1,0,0,2.12H35.59a1.06,1.06,0,0,0,0-2.12H27.66L25.76,1h0a1.06,1.06,0,0,0-1-.74H20.36a1.05,1.05,0,0,0,0,2.11Zm28.19.69A1.05,1.05,0,0,0,48,3L34.22,3a1.05,1.05,0,0,0,0,2.11H46.44L40.83,17h-16a1.06,1.06,0,1,0,0,2.12H41.49a1.06,1.06,0,0,0,1-.67L49.06,4.51A1.06,1.06,0,0,0,48.55,3.1ZM21.7,17H19.46a1.06,1.06,0,0,0,0,2.12H21.7a1.06,1.06,0,0,0,0-2.12Zm15.2,3.22A1.74,1.74,0,1,0,38.64,22,1.74,1.74,0,0,0,36.9,20.23Zm-5.7,0A1.74,1.74,0,1,0,32.94,22,1.74,1.74,0,0,0,31.2,20.23Z" transform="translate(-18.4 -0.3)"/><path class="cls-2" d="M63.13,6.24H56.74v3.94h5.91v1.53H56.74v4.36h6.7V17.6H55V4.71h8.09Z" transform="translate(-18.4 -0.3)"/><path class="cls-2" d="M73.1,17.6H71.45a3.4,3.4,0,0,1-.19-.48q-.05-.18-.13-.67A4,4,0,0,1,68,17.82a3.41,3.41,0,0,1-1.55-.34,2.46,2.46,0,0,1-1-.95,2.68,2.68,0,0,1-.36-1.4,2.46,2.46,0,0,1,.78-1.92,4.93,4.93,0,0,1,2.58-1A18.94,18.94,0,0,0,71,11.69v-.25a3.09,3.09,0,0,0-.2-1.23,1.26,1.26,0,0,0-.65-.65,2.94,2.94,0,0,0-1.2-.2,2.37,2.37,0,0,0-1.5.43,2.16,2.16,0,0,0-.73,1.35L65.2,10.9a3.3,3.3,0,0,1,1.26-2.13,4.32,4.32,0,0,1,2.6-.71,5.46,5.46,0,0,1,2,.31,2.19,2.19,0,0,1,1.15,1,4.06,4.06,0,0,1,.38,1.9v3.35q0,.87,0,1.34a4.13,4.13,0,0,0,.14.82A5.15,5.15,0,0,0,73.1,17.6Zm-4.67-4a2.8,2.8,0,0,0-1.38.55,1.3,1.3,0,0,0-.44,1,1.34,1.34,0,0,0,.44,1.06,1.85,1.85,0,0,0,1.25.38,2.83,2.83,0,0,0,1.43-.44,2.68,2.68,0,0,0,.79-.66,2.18,2.18,0,0,0,.38-.87A6.51,6.51,0,0,0,71,13.27v-.33a6.53,6.53,0,0,1-1,.27Q69.32,13.39,68.43,13.56Z" transform="translate(-18.4 -0.3)"/><path class="cls-2" d="M77.73,9.35a2.25,2.25,0,0,0-1.3.33,1,1,0,0,0-.48.87,1.08,1.08,0,0,0,.2.68,1.45,1.45,0,0,0,.65.44,6.69,6.69,0,0,0,1.25.3,8.62,8.62,0,0,1,2,.54,2.7,2.7,0,0,1,1.17.9,2.45,2.45,0,0,1,.4,1.45,2.74,2.74,0,0,1-.44,1.52,2.92,2.92,0,0,1-1.26,1.06,4.41,4.41,0,0,1-1.88.38q-3.33,0-3.84-3l1.57-.25A2.36,2.36,0,0,0,76.47,16a2.27,2.27,0,0,0,1.54.48,2.32,2.32,0,0,0,1.46-.4A1.3,1.3,0,0,0,80,15a1.1,1.1,0,0,0-.58-1,4.51,4.51,0,0,0-1.63-.51,5.53,5.53,0,0,1-2.5-.9,2.22,2.22,0,0,1-.85-1.89,2.43,2.43,0,0,1,.41-1.38,2.74,2.74,0,0,1,1.16-1,4.72,4.72,0,0,1,4.17.3,2.86,2.86,0,0,1,1.12,1.93l-1.55.24a1.71,1.71,0,0,0-.64-1.12A2.16,2.16,0,0,0,77.73,9.35Z" transform="translate(-18.4 -0.3)"/><path class="cls-2" d="M86.16,13.65q.27.76.39,1.15t.28,1h0q.18-.78.28-1.11t.48-1.37l1.85-5.08h1.61l-3.78,10a10.53,10.53,0,0,1-.88,1.88,2.7,2.7,0,0,1-.91.94,2.31,2.31,0,0,1-1.15.27,4.84,4.84,0,0,1-.64-.06l-.68-.12.33-1.34a2,2,0,0,0,.71.14,1.33,1.33,0,0,0,.84-.25,1.88,1.88,0,0,0,.54-.68q.21-.43.38-.89l.21-.56L82.51,8.27h1.71Z" transform="translate(-18.4 -0.3)"/><path class="cls-2" d="M102.77,8.57a3.35,3.35,0,0,0-1-2,3.1,3.1,0,0,0-2-.61,4.11,4.11,0,0,0-1.48.25,2.3,2.3,0,0,0-1,.7,1.64,1.64,0,0,0-.36,1.05,1.44,1.44,0,0,0,.33,1,2.41,2.41,0,0,0,1,.62,15.56,15.56,0,0,0,1.93.52,12.62,12.62,0,0,1,2.75.87,3.48,3.48,0,0,1,1.48,1.22,3.29,3.29,0,0,1,.46,1.81,3.4,3.4,0,0,1-.6,2,4.1,4.1,0,0,1-1.67,1.38,5.54,5.54,0,0,1-2.4.5,5.84,5.84,0,0,1-3.7-1.08,4.65,4.65,0,0,1-1.68-3.16l1.68-.4a3.52,3.52,0,0,0,1.09,2.38,3.74,3.74,0,0,0,2.54.79,4.32,4.32,0,0,0,1.56-.27,2.75,2.75,0,0,0,1.13-.76,1.64,1.64,0,0,0,.42-1.09,1.85,1.85,0,0,0-.4-1.26,2.71,2.71,0,0,0-1.18-.73,19.46,19.46,0,0,0-1.89-.52l-1-.25a7,7,0,0,1-2.1-.87,2.86,2.86,0,0,1-1-1.16,3.66,3.66,0,0,1-.29-1.53,2.87,2.87,0,0,1,.58-1.75,3.82,3.82,0,0,1,1.59-1.23,5.62,5.62,0,0,1,2.27-.44,5.88,5.88,0,0,1,2.35.44,3.93,3.93,0,0,1,1.64,1.27,4.17,4.17,0,0,1,.77,2l-1.64.37Z" transform="translate(-18.4 -0.3)"/><path class="cls-2" d="M108.43,9.42a3,3,0,0,1,1.18-1,3.51,3.51,0,0,1,1.57-.37,3.29,3.29,0,0,1,2.44.83,3.26,3.26,0,0,1,.83,2.39V17.6h-1.58V11.5a2.14,2.14,0,0,0-.51-1.55,1.91,1.91,0,0,0-1.44-.53,2.44,2.44,0,0,0-1.8.69,3.17,3.17,0,0,0-.69,2.29V17.6h-1.58V4.71h1.58Z" transform="translate(-18.4 -0.3)"/><path class="cls-2" d="M116.27,12.94a5.84,5.84,0,0,1,.54-2.62,3.9,3.9,0,0,1,1.53-1.68,4.44,4.44,0,0,1,2.29-.58,4.54,4.54,0,0,1,2.29.56,3.83,3.83,0,0,1,1.53,1.66,5.83,5.83,0,0,1,.55,2.64,5.83,5.83,0,0,1-.55,2.64,3.92,3.92,0,0,1-1.54,1.68,4.45,4.45,0,0,1-2.28.58,4.53,4.53,0,0,1-2.27-.56,3.84,3.84,0,0,1-1.54-1.66A5.81,5.81,0,0,1,116.27,12.94Zm4.36-3.58a2.5,2.5,0,0,0-1.41.41,2.73,2.73,0,0,0-1,1.21,4.84,4.84,0,0,0-.36,2,4.87,4.87,0,0,0,.35,2,2.7,2.7,0,0,0,1,1.21,2.72,2.72,0,0,0,2.89,0,2.69,2.69,0,0,0,1-1.23,5,5,0,0,0,.34-1.94A4.82,4.82,0,0,0,123,11a2.69,2.69,0,0,0-1-1.21A2.57,2.57,0,0,0,120.63,9.36Z" transform="translate(-18.4 -0.3)"/><path class="cls-2" d="M128.5,16.54h0v4.63h-1.58V8.27h1.48V9.46h0a3.3,3.3,0,0,1,1.18-1,3.43,3.43,0,0,1,1.59-.36,4,4,0,0,1,2.2.6,3.89,3.89,0,0,1,1.45,1.7,6.09,6.09,0,0,1,.51,2.58,6.14,6.14,0,0,1-.5,2.56,4,4,0,0,1-1.42,1.71,3.74,3.74,0,0,1-2.12.61A3.4,3.4,0,0,1,128.5,16.54ZM131,9.35a2.32,2.32,0,0,0-1.42.45,2.85,2.85,0,0,0-.93,1.23,4.56,4.56,0,0,0-.33,1.77,5.28,5.28,0,0,0,.34,2,2.82,2.82,0,0,0,1,1.28,2.43,2.43,0,0,0,1.46.44,2.21,2.21,0,0,0,1.4-.46,2.81,2.81,0,0,0,.89-1.27,5.27,5.27,0,0,0,.3-1.86,5,5,0,0,0-.33-1.92,2.72,2.72,0,0,0-.94-1.23A2.38,2.38,0,0,0,131,9.35Z" transform="translate(-18.4 -0.3)"/></svg>